<svg width="120" height="130" viewBox="0 0 120 130" fill="none" xmlns="http://www.w3.org/2000/svg">
<path d="M55 63.25V0.75L21.5 20.25C38.3 30.25 50.8333 53.0833 55 63.25Z" fill="#00B431"/>
<path d="M11.5 26.75L1 31.75V59.25C24.6 66.45 45.5 92.25 53 104.25C51.4 61.85 24.6667 34.9167 11.5 26.75Z" fill="#006B37"/>
<path d="M1 99.25V69.75C33.8 86.55 48 116.417 51 129.25L1 99.25Z" fill="#008E98"/>
<path d="M65 63.25V0.75L98.5 20.25C81.7 30.25 69.1667 53.0833 65 63.25Z" fill="#00B431"/>
<path d="M108.5 26.75L119 31.75V59.25C95.4 66.45 74.5 92.25 67 104.25C68.6 61.85 95.3333 34.9167 108.5 26.75Z" fill="#006B37"/>
<path d="M119 99.25V69.75C86.2 86.55 72 116.417 69 129.25L119 99.25Z" fill="#008E98"/>
</svg>
