<svg width="1440" height="1227" viewBox="0 0 1440 1227" fill="none" xmlns="http://www.w3.org/2000/svg">
<path d="M1450.68 -19H-47.1792V1227H1450.68V-19Z" fill="#F1F1F1"/>
<g opacity="0.64">
<path opacity="0.64" d="M-112.321 1199.69C42.1416 1199.69 167.358 1074.46 167.358 919.986C167.358 765.509 42.1416 640.28 -112.321 640.28C-266.783 640.28 -392 765.509 -392 919.986C-392 1074.46 -266.783 1199.69 -112.321 1199.69Z" fill="#27B58E"/>
<path opacity="0.64" d="M-111.931 1136.5C7.41672 1136.5 104.167 1039.74 104.167 920.376C104.167 801.017 7.41672 704.257 -111.931 704.257C-231.278 704.257 -328.029 801.017 -328.029 920.376C-328.029 1039.74 -231.278 1136.5 -111.931 1136.5Z" fill="white"/>
</g>
<g opacity="0.64">
<path opacity="0.64" d="M1606.32 640.28C1760.78 640.28 1886 515.051 1886 360.574C1886 206.096 1760.78 80.8672 1606.32 80.8672C1451.86 80.8672 1326.64 206.096 1326.64 360.574C1326.64 515.051 1451.86 640.28 1606.32 640.28Z" fill="#27B58E"/>
<path opacity="0.64" d="M1606.71 577.083C1726.06 577.083 1822.81 480.323 1822.81 360.964C1822.81 241.604 1726.06 144.845 1606.71 144.845C1487.36 144.845 1390.61 241.604 1390.61 360.964C1390.61 480.323 1487.36 577.083 1606.71 577.083Z" fill="white"/>
</g>
<path opacity="0.7" d="M1285.29 784.619C1288.74 784.619 1291.54 781.825 1291.54 778.378C1291.54 774.93 1288.74 772.136 1285.29 772.136C1281.85 772.136 1279.05 774.93 1279.05 778.378C1279.05 781.825 1281.85 784.619 1285.29 784.619Z" fill="#27B58E"/>
<path opacity="0.7" d="M1285.29 808.806C1288.74 808.806 1291.54 806.011 1291.54 802.564C1291.54 799.117 1288.74 796.322 1285.29 796.322C1281.85 796.322 1279.05 799.117 1279.05 802.564C1279.05 806.011 1281.85 808.806 1285.29 808.806Z" fill="#27B58E"/>
<path opacity="0.7" d="M1285.29 833.773C1288.74 833.773 1291.54 830.978 1291.54 827.531C1291.54 824.084 1288.74 821.289 1285.29 821.289C1281.85 821.289 1279.05 824.084 1279.05 827.531C1279.05 830.978 1281.85 833.773 1285.29 833.773Z" fill="#27B58E"/>
<path opacity="0.7" d="M1285.29 857.959C1288.74 857.959 1291.54 855.165 1291.54 851.718C1291.54 848.27 1288.74 845.476 1285.29 845.476C1281.85 845.476 1279.05 848.27 1279.05 851.718C1279.05 855.165 1281.85 857.959 1285.29 857.959Z" fill="#27B58E"/>
<path opacity="0.7" d="M1312.99 784.619C1316.22 784.619 1318.84 781.825 1318.84 778.378C1318.84 774.93 1316.22 772.136 1312.99 772.136C1309.76 772.136 1307.14 774.93 1307.14 778.378C1307.14 781.825 1309.76 784.619 1312.99 784.619Z" fill="#27B58E"/>
<path opacity="0.7" d="M1312.99 808.806C1316.22 808.806 1318.84 806.011 1318.84 802.564C1318.84 799.117 1316.22 796.322 1312.99 796.322C1309.76 796.322 1307.14 799.117 1307.14 802.564C1307.14 806.011 1309.76 808.806 1312.99 808.806Z" fill="#27B58E"/>
<path opacity="0.7" d="M1312.99 833.773C1316.22 833.773 1318.84 830.978 1318.84 827.531C1318.84 824.084 1316.22 821.289 1312.99 821.289C1309.76 821.289 1307.14 824.084 1307.14 827.531C1307.14 830.978 1309.76 833.773 1312.99 833.773Z" fill="#27B58E"/>
<path opacity="0.7" d="M1312.99 857.959C1316.22 857.959 1318.84 855.165 1318.84 851.718C1318.84 848.27 1316.22 845.476 1312.99 845.476C1309.76 845.476 1307.14 848.27 1307.14 851.718C1307.14 855.165 1309.76 857.959 1312.99 857.959Z" fill="#27B58E"/>
<path opacity="0.7" d="M1339.9 784.619C1343.35 784.619 1346.15 781.825 1346.15 778.378C1346.15 774.93 1343.35 772.136 1339.9 772.136C1336.46 772.136 1333.66 774.93 1333.66 778.378C1333.66 781.825 1336.46 784.619 1339.9 784.619Z" fill="#27B58E"/>
<path opacity="0.7" d="M1339.9 808.806C1343.35 808.806 1346.15 806.011 1346.15 802.564C1346.15 799.117 1343.35 796.322 1339.9 796.322C1336.46 796.322 1333.66 799.117 1333.66 802.564C1333.66 806.011 1336.46 808.806 1339.9 808.806Z" fill="#27B58E"/>
<path opacity="0.7" d="M1339.9 833.773C1343.35 833.773 1346.15 830.978 1346.15 827.531C1346.15 824.084 1343.35 821.289 1339.9 821.289C1336.46 821.289 1333.66 824.084 1333.66 827.531C1333.66 830.978 1336.46 833.773 1339.9 833.773Z" fill="#27B58E"/>
<path opacity="0.7" d="M1339.9 857.959C1343.35 857.959 1346.15 855.165 1346.15 851.718C1346.15 848.27 1343.35 845.476 1339.9 845.476C1336.46 845.476 1333.66 848.27 1333.66 851.718C1333.66 855.165 1336.46 857.959 1339.9 857.959Z" fill="#27B58E"/>
<path opacity="0.7" d="M1367.99 784.619C1371.44 784.619 1374.23 781.825 1374.23 778.378C1374.23 774.93 1371.44 772.136 1367.99 772.136C1364.54 772.136 1361.75 774.93 1361.75 778.378C1361.75 781.825 1364.54 784.619 1367.99 784.619Z" fill="#27B58E"/>
<path opacity="0.7" d="M1367.99 808.806C1371.44 808.806 1374.23 806.011 1374.23 802.564C1374.23 799.117 1371.44 796.322 1367.99 796.322C1364.54 796.322 1361.75 799.117 1361.75 802.564C1361.75 806.011 1364.54 808.806 1367.99 808.806Z" fill="#27B58E"/>
<path opacity="0.7" d="M1367.99 833.773C1371.44 833.773 1374.23 830.978 1374.23 827.531C1374.23 824.084 1371.44 821.289 1367.99 821.289C1364.54 821.289 1361.75 824.084 1361.75 827.531C1361.75 830.978 1364.54 833.773 1367.99 833.773Z" fill="#27B58E"/>
<path opacity="0.7" d="M1367.99 857.959C1371.44 857.959 1374.23 855.165 1374.23 851.718C1374.23 848.27 1371.44 845.476 1367.99 845.476C1364.54 845.476 1361.75 848.27 1361.75 851.718C1361.75 855.165 1364.54 857.959 1367.99 857.959Z" fill="#27B58E"/>
<g opacity="0.64">
<path opacity="0.64" d="M-28.456 347.7C17.6458 347.7 55.0186 310.324 55.0186 264.217C55.0186 218.111 17.6458 180.735 -28.456 180.735C-74.5578 180.735 -111.931 218.111 -111.931 264.217C-111.931 310.324 -74.5578 347.7 -28.456 347.7Z" fill="#27B58E"/>
<path opacity="0.64" d="M-28.4561 328.975C7.30505 328.975 36.2952 299.982 36.2952 264.217C36.2952 228.453 7.30505 199.46 -28.4561 199.46C-64.2173 199.46 -93.2075 228.453 -93.2075 264.217C-93.2075 299.982 -64.2173 328.975 -28.4561 328.975Z" fill="white"/>
</g>
<path opacity="0.7" d="M48.7776 456.15C50.9319 456.15 52.6783 454.403 52.6783 452.249C52.6783 450.094 50.9319 448.348 48.7776 448.348C46.6234 448.348 44.877 450.094 44.877 452.249C44.877 454.403 46.6234 456.15 48.7776 456.15Z" fill="#27B58E"/>
<path opacity="0.7" d="M48.7776 470.974C50.9319 470.974 52.6783 469.227 52.6783 467.073C52.6783 464.918 50.9319 463.172 48.7776 463.172C46.6234 463.172 44.877 464.918 44.877 467.073C44.877 469.227 46.6234 470.974 48.7776 470.974Z" fill="#27B58E"/>
<path opacity="0.7" d="M48.7776 486.578C50.9319 486.578 52.6783 484.657 52.6783 482.287C52.6783 479.917 50.9319 477.996 48.7776 477.996C46.6234 477.996 44.877 479.917 44.877 482.287C44.877 484.657 46.6234 486.578 48.7776 486.578Z" fill="#27B58E"/>
<path opacity="0.7" d="M48.7776 502.182C50.9319 502.182 52.6783 500.436 52.6783 498.281C52.6783 496.127 50.9319 494.38 48.7776 494.38C46.6234 494.38 44.877 496.127 44.877 498.281C44.877 500.436 46.6234 502.182 48.7776 502.182Z" fill="#27B58E"/>
<path opacity="0.7" d="M66.3309 456.15C68.2698 456.15 69.8416 454.403 69.8416 452.249C69.8416 450.094 68.2698 448.348 66.3309 448.348C64.3921 448.348 62.8203 450.094 62.8203 452.249C62.8203 454.403 64.3921 456.15 66.3309 456.15Z" fill="#27B58E"/>
<path opacity="0.7" d="M66.3309 470.974C68.2698 470.974 69.8416 469.227 69.8416 467.073C69.8416 464.918 68.2698 463.172 66.3309 463.172C64.3921 463.172 62.8203 464.918 62.8203 467.073C62.8203 469.227 64.3921 470.974 66.3309 470.974Z" fill="#27B58E"/>
<path opacity="0.7" d="M66.3309 486.578C68.2698 486.578 69.8416 484.657 69.8416 482.287C69.8416 479.917 68.2698 477.996 66.3309 477.996C64.3921 477.996 62.8203 479.917 62.8203 482.287C62.8203 484.657 64.3921 486.578 66.3309 486.578Z" fill="#27B58E"/>
<path opacity="0.7" d="M66.3309 502.182C68.2698 502.182 69.8416 500.436 69.8416 498.281C69.8416 496.127 68.2698 494.38 66.3309 494.38C64.3921 494.38 62.8203 496.127 62.8203 498.281C62.8203 500.436 64.3921 502.182 66.3309 502.182Z" fill="#27B58E"/>
<path opacity="0.7" d="M83.1038 456.15C85.2581 456.15 87.0045 454.403 87.0045 452.249C87.0045 450.094 85.2581 448.348 83.1038 448.348C80.9495 448.348 79.2031 450.094 79.2031 452.249C79.2031 454.403 80.9495 456.15 83.1038 456.15Z" fill="#27B58E"/>
<path opacity="0.7" d="M83.1038 470.974C85.2581 470.974 87.0045 469.227 87.0045 467.073C87.0045 464.918 85.2581 463.172 83.1038 463.172C80.9495 463.172 79.2031 464.918 79.2031 467.073C79.2031 469.227 80.9495 470.974 83.1038 470.974Z" fill="#27B58E"/>
<path opacity="0.7" d="M83.1038 486.578C85.2581 486.578 87.0045 484.657 87.0045 482.287C87.0045 479.917 85.2581 477.996 83.1038 477.996C80.9495 477.996 79.2031 479.917 79.2031 482.287C79.2031 484.657 80.9495 486.578 83.1038 486.578Z" fill="#27B58E"/>
<path opacity="0.7" d="M83.1038 502.182C85.2581 502.182 87.0045 500.436 87.0045 498.281C87.0045 496.127 85.2581 494.38 83.1038 494.38C80.9495 494.38 79.2031 496.127 79.2031 498.281C79.2031 500.436 80.9495 502.182 83.1038 502.182Z" fill="#27B58E"/>
<path opacity="0.7" d="M100.657 456.15C103.027 456.15 104.948 454.403 104.948 452.249C104.948 450.094 103.027 448.348 100.657 448.348C98.2873 448.348 96.3662 450.094 96.3662 452.249C96.3662 454.403 98.2873 456.15 100.657 456.15Z" fill="#27B58E"/>
<path opacity="0.7" d="M100.657 470.974C103.027 470.974 104.948 469.227 104.948 467.073C104.948 464.918 103.027 463.172 100.657 463.172C98.2873 463.172 96.3662 464.918 96.3662 467.073C96.3662 469.227 98.2873 470.974 100.657 470.974Z" fill="#27B58E"/>
<path opacity="0.7" d="M100.657 486.578C103.027 486.578 104.948 484.657 104.948 482.287C104.948 479.917 103.027 477.996 100.657 477.996C98.2873 477.996 96.3662 479.917 96.3662 482.287C96.3662 484.657 98.2873 486.578 100.657 486.578Z" fill="#27B58E"/>
<path opacity="0.7" d="M100.657 502.182C103.027 502.182 104.948 500.436 104.948 498.281C104.948 496.127 103.027 494.38 100.657 494.38C98.2873 494.38 96.3662 496.127 96.3662 498.281C96.3662 500.436 98.2873 502.182 100.657 502.182Z" fill="#27B58E"/>
</svg>
